<?xml version="1.0" encoding="utf-8"?>
<!-- Generator: Adobe Illustrator 24.0.0, SVG Export Plug-In . SVG Version: 6.00 Build 0)  -->
<svg version="1.1" id="Layer_1" xmlns="http://www.w3.org/2000/svg" xmlns:xlink="http://www.w3.org/1999/xlink" x="0px" y="0px"
	 viewBox="0 0 170 40" style="enable-background:new 0 0 170 40;" xml:space="preserve">
<style type="text/css">
	.st0{filter:url(#Adobe_OpacityMaskFilter);}
	.st1{fill-rule:evenodd;clip-rule:evenodd;fill:#FFFFFF;}
	.st2{mask:url(#mask-2_1_);fill-rule:evenodd;clip-rule:evenodd;fill:#FBA60B;}
	.st3{fill-rule:evenodd;clip-rule:evenodd;fill:#FFFFFE;}
	.st4{fill-rule:evenodd;clip-rule:evenodd;}
</style>
<title>CuriosityStream®-Icon-Horz-Color-Rev Copy</title>
<desc>Created with Sketch.</desc>
<g id="header-phase-1-_x28_fix-mobile_x29_">
	<g id="_x32_---Nav---Sign-In---tablet" transform="translate(-48.000000, -10.000000)">
		<g id="CuriosityStream_xAE_-Icon-Horz-Color-Rev-Copy" transform="translate(48.000000, 10.000000)">
			<g id="Group-3">
				<g id="Clip-2">
				</g>
				<defs>
					<filter id="Adobe_OpacityMaskFilter" filterUnits="userSpaceOnUse" x="0" y="0.4" width="39.6" height="39.6">
						<feColorMatrix  type="matrix" values="1 0 0 0 0  0 1 0 0 0  0 0 1 0 0  0 0 0 1 0"/>
					</filter>
				</defs>
				<mask maskUnits="userSpaceOnUse" x="0" y="0.4" width="39.6" height="39.6" id="mask-2_1_">
					<g class="st0">
						<polygon id="path-1_1_" class="st1" points="0,0.4 39.6,0.4 39.6,40 0,40 						"/>
					</g>
				</mask>
				<path id="Fill-1" class="st2" d="M19.8,0.4C8.9,0.4,0,9.3,0,20.2S8.9,40,19.8,40s19.8-8.9,19.8-19.8S30.7,0.4,19.8,0.4"/>
			</g>
			<path id="Fill-4" class="st3" d="M19.8,33.3c-1,0-1.9-0.8-1.9-1.9c0-1,0.8-1.9,1.9-1.9s1.9,0.8,1.9,1.9
				C21.7,32.4,20.8,33.3,19.8,33.3"/>
			<path id="Fill-5" class="st3" d="M25,20.3c0,2.1-1.4,3.9-3.5,4.5v3.5H18v-3.5c-2-0.6-3.4-2.4-3.4-4.5V9.2H18v11.1
				c0,0.9,0.8,1.6,1.8,1.6c1,0,1.7-0.7,1.7-1.6V9.2H25V20.3"/>
			<g id="Group-2" transform="translate(44.000000, 12.000000)">
				<path id="Fill-6" class="st4" d="M76.3,12.6c0,2.2-1.9,4.1-4.1,4.1c-2.3,0-4.1-1.8-4.1-4.1h2.8c0,0.7,0.6,1.4,1.4,1.4
					s1.4-0.6,1.4-1.4c0-0.3-0.1-0.6-0.3-0.8l-4.3-5c-0.6-0.7-1-1.6-1-2.7C68,1.8,69.9,0,72.2,0c2.3,0,4.1,1.8,4.1,4.1h-2.7
					c0-0.7-0.6-1.3-1.4-1.3s-1.4,0.6-1.4,1.3c0,0.3,0.1,0.6,0.3,0.8l4.3,5C76,10.6,76.3,11.5,76.3,12.6"/>
				<path id="Fill-7" class="st4" d="M94.6,6.7c-0.8,0-1.4,0.5-1.4,1.2v1.3H96V7.9C96,7.2,95.4,6.7,94.6,6.7z M93.3,11.7v1.2
					c0,0.7,0.6,1.3,1.4,1.3c0.8,0,1.4-0.6,1.4-1.3h2.8c0,2-1.9,3.7-4.2,3.7c-2.3,0-4.1-1.7-4.1-3.7v-5c0-2,1.9-3.7,4.1-3.7
					c2.3,0,4.2,1.7,4.2,3.7v3.7H93.3L93.3,11.7z"/>
				<path id="Fill-8" class="st4" d="M102.6,12.9c0,0.7,0.6,1.2,1.4,1.2c0.8,0,1.4-0.5,1.4-1.2v-1.3H104
					C103.3,11.6,102.6,12.2,102.6,12.9z M104,16.6c-2.3,0-4.2-1.7-4.2-3.7s1.9-3.7,4.2-3.7h1.4V7.9c0-0.7-0.6-1.2-1.4-1.2
					c-0.8,0-1.4,0.5-1.4,1.2h-2.8c0-2,1.9-3.7,4.2-3.7c2.3,0,4.1,1.7,4.1,3.7v5C108.2,14.9,106.3,16.6,104,16.6L104,16.6z"/>
				<path id="Fill-9" class="st4" d="M118.7,4c2.3,0,4.1,1.7,4.1,3.7v8.7H120V7.7c0-0.7-0.6-1.3-1.4-1.3c-0.8,0-1.4,0.6-1.4,1.3v8.7
					h-2.8V7.7c0-0.7-0.6-1.3-1.4-1.3c-0.8,0-1.4,0.6-1.4,1.3v8.7H109V7.7c0-2,1.9-3.7,4.1-3.7c1.1,0,2,0.4,2.8,0.9
					C116.6,4.4,117.6,4,118.7,4"/>
				<path id="Fill-10" class="st4" d="M86.9,5.1V4.3H84v12.2h2.8l0-7.9c0-1.7,2.9-1.9,2.9-1.9V4.3C89.8,4.3,87.7,4.5,86.9,5.1"/>
				<path id="Fill-11" class="st4" d="M64.1,4.3h2.7v8.8c0,1.6-1.1,3.1-2.7,3.5v2.8h-2.7v-2.8c-1.6-0.5-2.7-1.9-2.7-3.5V4.3h2.7v8.8
					c0,0.7,0.6,1.2,1.4,1.2c0.8,0,1.4-0.6,1.4-1.2V4.3"/>
				<path id="Fill-12" class="st4" d="M64.2,21.8c0,0.8-0.7,1.5-1.5,1.5c-0.8,0-1.5-0.7-1.5-1.5c0-0.8,0.7-1.5,1.5-1.5
					C63.5,20.3,64.2,21,64.2,21.8"/>
				<path id="Fill-13" class="st4" d="M4.1,16.6c-2.3,0-4.1-1.8-4.1-4.1V4.3C0,2,1.8,0.1,4.1,0.1c2.3,0,4.1,1.9,4.1,4.1H5.5
					c0-0.8-0.6-1.4-1.4-1.4S2.7,3.5,2.7,4.3v8.2c0,0.8,0.6,1.4,1.4,1.4s1.4-0.6,1.4-1.4h2.7C8.2,14.7,6.4,16.6,4.1,16.6"/>
				<path id="Fill-14" class="st4" d="M13.5,16.6c-2.3,0-4.1-1.7-4.1-3.7V4.3h2.7v8.6c0,0.7,0.6,1.3,1.4,1.3c0.8,0,1.4-0.6,1.4-1.3
					V4.3h2.7v8.6C17.6,15,15.8,16.6,13.5,16.6"/>
				<polygon id="Fill-15" class="st4" points="25.3,16.5 28,16.5 28,4.3 25.3,4.3 				"/>
				<path id="Fill-16" class="st4" d="M21.5,5V4.3h-2.7v12.3h2.7l0-8c0-1.7,2.8-1.8,2.8-1.8V4.3C24.3,4.3,22.3,4.4,21.5,5"/>
				<path id="Fill-17" class="st4" d="M33.4,6.7c-0.8,0-1.4,0.5-1.4,1.2v5c0,0.7,0.6,1.3,1.4,1.3c0.8,0,1.4-0.6,1.4-1.3V8
					C34.8,7.3,34.2,6.7,33.4,6.7z M33.4,16.6c-2.3,0-4.1-1.7-4.1-3.7V8c0-2,1.8-3.7,4.1-3.7c2.3,0,4.1,1.7,4.1,3.7v5
					C37.5,15,35.7,16.6,33.4,16.6L33.4,16.6z"/>
				<path id="Fill-18" class="st4" d="M42.9,9.2c2.3,0,4.1,1.7,4.1,3.7c0,2.1-1.8,3.7-4.1,3.7c-2.3,0-4.1-1.7-4.1-3.7h2.7
					c0,0.7,0.6,1.3,1.4,1.3c0.8,0,1.4-0.5,1.4-1.3c0-0.7-0.6-1.2-1.4-1.2c-2.3,0-4.1-1.7-4.1-3.7c0-2.1,1.8-3.7,4.1-3.7
					C45.1,4.3,47,5.9,47,8h-2.7c0-0.7-0.6-1.3-1.4-1.3c-0.8,0-1.4,0.5-1.4,1.3C41.5,8.7,42.1,9.2,42.9,9.2"/>
				<polygon id="Fill-19" class="st4" points="48,16.5 50.7,16.5 50.7,4.3 48,4.3 				"/>
				<path id="Fill-20" class="st4" d="M56.1,13.8h1.4v2.7h-1.4c-2.3,0-4.1-1.8-4.1-4.1V0.1h2.7v4.2l2.7,0v2.7h-2.7v5.5
					C54.7,13.2,55.4,13.8,56.1,13.8"/>
				<path id="Fill-21" class="st4" d="M81.5,13.8h1.4v2.7h-1.4c-2.3,0-4.1-1.8-4.1-4.1V0.1h2.7v4.2l2.7,0v2.7h-2.7v5.5
					C80.1,13.2,80.7,13.8,81.5,13.8"/>
				<path id="Fill-22" class="st4" d="M124.1,5.1L124.1,5.1c0.2,0,0.3,0,0.3-0.1c0-0.1-0.1-0.1-0.2-0.1c-0.1,0-0.1,0-0.1,0V5.1z
					 M124.1,5.6h-0.2V4.7c0.1,0,0.2,0,0.3,0c0.2,0,0.2,0,0.3,0.1c0,0,0.1,0.1,0.1,0.2c0,0.1-0.1,0.2-0.2,0.2v0
					c0.1,0,0.1,0.1,0.2,0.2c0,0.1,0,0.2,0.1,0.2h-0.2c0,0,0-0.1-0.1-0.2c0-0.1-0.1-0.1-0.2-0.1h-0.1V5.6z M123.5,5.1
					c0,0.4,0.3,0.8,0.7,0.8c0.4,0,0.7-0.3,0.7-0.7c0-0.4-0.3-0.8-0.7-0.8C123.8,4.4,123.5,4.7,123.5,5.1z M125.1,5.1
					c0,0.5-0.4,1-0.9,1c-0.5,0-0.9-0.4-0.9-1c0-0.5,0.4-0.9,0.9-0.9C124.7,4.2,125.1,4.6,125.1,5.1L125.1,5.1z"/>
			</g>
		</g>
	</g>
</g>
</svg>
