<?xml version="1.0" encoding="UTF-8" standalone="no"?>
<!-- Created with Inkscape (http://www.inkscape.org/) -->
<svg
   xmlns:svg="http://www.w3.org/2000/svg"
   xmlns="http://www.w3.org/2000/svg"
   version="1.0"
   width="230"
   height="90"
   id="svg7491">
  <defs
     id="defs7493" />
  <g
     id="layer1">
    <path
       d="M 33.661034,83.658203 C 28.126184,81.828413 23.334904,79.232203 18.864764,75.640693 L 15.068504,72.590593 L 18.465104,70.848033 C 23.355324,68.339203 25.564904,64.464473 25.578314,58.374293 C 25.592144,52.097993 23.364864,48.615513 14.743094,41.432733 C 8.9769934,36.629013 8.6610334,36.135483 8.6610334,31.932733 C 8.6610334,27.992013 8.9324634,27.461373 11.105003,27.154713 C 13.924394,26.756753 16.161034,29.205763 16.161034,32.690813 C 16.161034,34.717823 16.649334,34.999683 20.161034,34.999683 C 23.948224,34.999683 24.161034,34.838373 24.161034,31.967563 C 24.161034,27.291983 21.602804,22.238943 18.182654,20.159023 L 15.083924,18.274573 L 18.826844,14.988243 C 23.522344,10.865534 31.149084,7.3367537 38.596484,5.8411037 C 48.882674,3.7753337 63.169804,7.9402537 70.852304,15.244163 L 74.043564,18.278163 L 70.906364,20.392323 C 58.315854,28.877063 57.985314,60.502703 70.383314,70.437983 L 73.661034,73.064613 L 70.661034,75.623703 C 69.011034,77.031193 64.743824,79.583003 61.178334,81.294383 C 55.761864,83.894203 53.294764,84.453233 46.178334,84.693283 C 41.021684,84.867223 36.082764,84.458813 33.661034,83.658203 z M 38.161034,60.499683 L 38.161034,48.999683 L 43.161034,48.999683 L 48.161034,48.999683 L 48.161034,60.499683 L 48.161034,71.999683 L 52.661034,71.999683 L 57.161034,71.999683 L 57.161034,45.999683 L 57.161034,19.999683 L 52.661034,19.999683 L 48.161034,19.999683 L 48.161034,30.499683 L 48.161034,40.999683 L 43.161034,40.999683 L 38.161034,40.999683 L 38.161034,30.499683 L 38.161034,19.999683 L 34.161034,19.999683 L 30.161034,19.999683 L 30.161034,45.999683 L 30.161034,71.999683 L 34.161034,71.999683 L 38.161034,71.999683 L 38.161034,60.499683 z M 96.678094,70.749683 C 96.211564,69.361753 90.143134,23.264763 90.154114,21.192183 C 90.158974,20.273153 91.423744,19.976043 94.411034,20.192183 L 98.661034,20.499683 L 100.05775,33.769623 C 100.82595,41.068093 101.59814,46.895913 101.77373,46.720323 C 101.94931,46.544733 102.78405,41.923263 103.62871,36.450373 C 106.48209,17.961993 105.68886,19.847733 110.46663,20.194903 L 114.66104,20.499683 L 116.28157,31.999683 C 118.60043,48.455383 118.64543,48.522023 119.99535,37.499683 C 120.66895,31.999683 121.4729,25.802993 121.7819,23.729273 L 122.34373,19.958853 L 142.50239,20.229273 L 162.66104,20.499683 L 162.66104,45.999683 L 162.66104,71.499683 L 158.16104,71.499683 L 153.66104,71.499683 L 153.39115,50.249683 L 153.12126,28.999683 L 149.14115,28.999683 L 145.16104,28.999683 L 145.16104,50.554473 L 145.16104,72.109263 L 140.41104,71.804473 L 135.66104,71.499683 L 135.39115,50.249683 L 135.12126,28.999683 L 131.64115,28.999683 C 129.72709,28.999683 128.13739,29.112183 128.10849,29.249683 C 128.07959,29.387183 126.8301,38.949683 125.33185,50.499683 L 122.60777,71.499683 L 118.1749,71.499683 L 113.74202,71.499683 L 111.57944,56.499683 C 110.39003,48.249683 109.34896,41.949683 109.26597,42.499683 C 106.23826,62.564703 105.20275,69.731203 105.18402,70.749683 C 105.16951,71.539173 103.67584,71.999683 101.12965,71.999683 C 98.795294,71.999683 96.921394,71.473493 96.678094,70.749683 z M 167.16104,45.951963 L 167.16104,19.904243 L 173.39961,20.201963 L 179.63818,20.499683 L 181.54295,32.273013 C 182.59057,38.748343 183.57572,43.918343 183.73217,43.761893 C 183.88862,43.605443 184.73095,39.207443 185.60401,33.988563 C 188.17299,18.632033 187.33454,19.999683 194.18009,19.999683 L 200.16104,19.999683 L 200.16104,46.057183 L 200.16104,72.114683 L 195.91104,71.807183 L 191.66104,71.499683 L 191.16104,56.499683 L 190.66104,41.499683 L 188.14598,56.499683 C 185.66534,71.294353 185.59425,71.503943 182.95272,71.810633 C 180.62073,72.081383 180.19626,71.693583 179.66904,68.810633 C 179.33601,66.989613 178.00831,59.424683 176.71858,51.999683 L 174.37361,38.499683 L 174.26733,55.249683 L 174.16104,71.999683 L 170.66104,71.999683 L 167.16104,71.999683 L 167.16104,45.951963 z M 204.62485,70.765973 C 204.34962,70.048733 204.24517,58.445403 204.39274,44.980793 L 204.66104,20.499683 L 215.16104,20.499683 L 225.66104,20.499683 L 225.66104,24.499683 L 225.66104,28.499683 L 219.91104,28.799583 L 214.16104,29.099493 L 214.16104,35.049583 L 214.16104,40.999683 L 218.16104,40.999683 L 222.16104,40.999683 L 222.16104,45.499683 L 222.16104,49.999683 L 218.16104,49.999683 L 214.16104,49.999683 L 214.16104,56.499683 L 214.16104,62.999683 L 220.21854,62.999683 L 226.27604,62.999683 L 225.96854,67.249683 L 225.66104,71.499683 L 215.39316,71.784863 C 207.66495,71.999503 205.0015,71.747493 204.62485,70.765973 z M 9.4066334,61.749683 C 6.9946934,59.169183 4.8435434,51.632493 5.3301234,47.467403 L 5.6610334,44.634843 L 11.161033,49.118593 C 15.824174,52.920123 16.708894,54.175743 16.975564,57.370803 C 17.510014,63.774323 13.478854,66.106493 9.4066334,61.749683 z M 73.891124,61.249683 C 71.330094,58.412893 69.871854,50.541173 70.365524,42.218133 C 70.872824,33.665333 72.953714,28.517643 76.337994,27.443523 C 80.857884,26.008963 84.146064,33.646133 84.155454,45.600463 C 84.163524,55.870693 81.297694,62.999683 77.161034,62.999683 C 76.231524,62.999683 74.760064,62.212183 73.891124,61.249683 z "
       style="fill:#ee0000;fill-opacity:1"
       id="path8399" />
  </g>
</svg>
