<?xml version="1.0" encoding="UTF-8" standalone="no"?>
<!-- Created with Inkscape (http://www.inkscape.org/) -->

<svg
   xmlns:dc="http://purl.org/dc/elements/1.1/"
   xmlns:cc="http://creativecommons.org/ns#"
   xmlns:rdf="http://www.w3.org/1999/02/22-rdf-syntax-ns#"
   xmlns:svg="http://www.w3.org/2000/svg"
   xmlns="http://www.w3.org/2000/svg"
   xmlns:xlink="http://www.w3.org/1999/xlink"
   xmlns:sodipodi="http://sodipodi.sourceforge.net/DTD/sodipodi-0.dtd"
   xmlns:inkscape="http://www.inkscape.org/namespaces/inkscape"
   width="50.566219"
   height="16.000601"
   id="svg2"
   sodipodi:version="0.32"
   inkscape:version="0.48.2 r9819"
   version="1.0"
   sodipodi:docname="AJAX1.svg"
   inkscape:output_extension="org.inkscape.output.svg.inkscape">
  <defs
     id="defs4" />
  <sodipodi:namedview
     id="base"
     pagecolor="#ffffff"
     bordercolor="#666666"
     borderopacity="1.0"
     gridtolerance="10000"
     guidetolerance="10"
     objecttolerance="10"
     inkscape:pageopacity="0.0"
     inkscape:pageshadow="2"
     inkscape:zoom="9.4131015"
     inkscape:cx="8.8991819"
     inkscape:cy="7.4329015"
     inkscape:document-units="px"
     inkscape:current-layer="layer1"
     width="53px"
     height="18px"
     showgrid="true"
     inkscape:window-width="1280"
     inkscape:window-height="1004"
     inkscape:window-x="-8"
     inkscape:window-y="-8"
     fit-margin-top="0"
     fit-margin-left="0"
     fit-margin-right="0"
     fit-margin-bottom="0"
     inkscape:window-maximized="1" />
  <metadata
     id="metadata7">
    <rdf:RDF>
      <cc:Work
         rdf:about="">
        <dc:format>image/svg+xml</dc:format>
        <dc:type
           rdf:resource="http://purl.org/dc/dcmitype/StillImage" />
      </cc:Work>
    </rdf:RDF>
  </metadata>
  <g
     inkscape:label="Layer 1"
     inkscape:groupmode="layer"
     id="layer1"
     transform="translate(-3.8294381,-1030.515)">
    <g
       id="g44548"
       clip-path="url(#id1547)"
       transform="matrix(1,0,0,-1,-75.636091,1069.2284)">
      <g
         id="g44550"
         transform="matrix(0.0922699,0,0,0.0708008,253.79007,318.89429)">
        <use
           id="use44552"
           xlink:href="#id1548"
           x="0"
           y="0"
           width="744.09448"
           height="1052.3622" />
      </g>
    </g>
    <g
       id="g44912"
       transform="matrix(1,0,0,-1,97.148713,745.98248)" />
    <path
       id="path46166"
       d="m 49.030785,1042.1409 5.364871,-8.2594 -8.235338,0 -1.404228,2.1584 0,-2.1584 0,0 c -1.72428,0.01 -2.800455,0.1681 -4.050659,1.2842 l 0,-1.2842 -4.726768,0 0,2.5684 c 0,1.7783 1.444235,3.3026 3.224524,3.4006 l 1.566255,0.086 c 0.194031,-0.8361 0.968157,-1.9563 3.986648,-1.9483 l 0,0 2.108342,0 -5.364872,8.2613 10.241665,0 2.654431,-4.1086 z m -28.000551,0.9641 c -1.266206,0 -1.360221,-0.9261 -1.360221,-1.3862 l 0,-3.7306 1.730281,0 c -0.212035,0.6541 -0.328053,1.3562 -0.328053,2.0863 0,1.0662 0.24804,2.0724 0.686111,2.9585 -0.242039,0.038 -0.49208,0.072 -0.728118,0.072 m 9.405528,-7.8793 c -0.656106,-0.9921 -1.680273,-1.5942 -3.228524,-1.5942 -1.78429,0 -3.392552,0.8001 -4.512734,2.0783 -0.320052,0.3641 -0.600097,0.7682 -0.834135,1.2022 l 0,-3.0305 -2.190356,0 0,-3.3665 -4.724768,0 0,9.9676 c -0.310051,-0.6481 -0.828135,-1.1822 -1.526248,-1.5583 -0.576094,-0.3 -1.084176,-0.414 -3.204521,-0.8981 -1.5902586,-0.3921 -1.912311,-0.4621 -1.912311,-0.9001 0,-0.6221 0.8281346,-0.6221 1.0141649,-0.6221 1.2682061,0 2.2583671,0.6221 3.0664981,1.1301 l 1.892308,-2.8024 c -0.530086,-0.3401 -1.208196,-0.6641 -2.330379,-0.9322 -0.900146,-0.208 -1.800293,-0.324 -2.6984385,-0.324 -0.7841275,0 -2.8124571,0.048 -4.2186856,1.3842 -0.7141161,0.6921 -1.1981948,1.6603 -1.1981948,2.7204 0,2.5345 2.190356,3.1806 3.2965358,3.5026 1.0841762,0.3221 2.0743371,0.4841 2.4904047,0.5541 0.4840784,0.068 1.1981944,0.184 1.1981944,0.7821 0,0.5321 -0.670109,0.7382 -1.2442018,0.7382 -0.3920638,0 -1.0381688,-0.046 -1.8903073,-0.3921 -0.9221498,-0.3921 -1.360221,-0.7821 -1.7982922,-1.2202 l -1.9883232,2.9405 c 1.1261831,0.8341 2.9404779,1.8763 5.7229301,1.8763 2.8364614,0 4.6487554,-1.2142 5.3448684,-2.8365 0.04401,0.5821 0.200033,1.3082 0.792129,1.9003 0.944154,0.9682 2.626427,0.9902 3.13451,0.9902 0.99016,0 1.936314,-0.114 2.996487,-0.2521 l 0,-2.9884 c 1.058172,1.9363 3.044494,3.2405 5.322865,3.2405 1.548251,0 2.572418,-0.6021 3.228524,-1.5943 l 0,1.3282 4.724768,0 0,-2.5504 c 0,-1.7803 -1.442234,-3.3025 -3.222523,-3.4025 l -1.508246,-0.084 c -0.07401,1.2882 -1.138185,2.3103 -2.442397,2.3103 -1.352219,0 -2.450398,-1.0961 -2.450398,-2.4484 0,-1.3542 1.098179,-2.4504 2.450398,-2.4504 1.304212,0 2.368385,1.0222 2.442397,2.3104 l 1.508246,-0.084 c 1.780289,-0.098 3.222523,-1.6223 3.222523,-3.4006 l 0,-2.5684 -4.724768,0 z m 5.542901,8.4734 0,2.5504 4.726768,0 0,-5.8049 c 0.002,-0.07 0.008,-0.148 0.016,-0.232 l -1.518247,0.084 c -1.780289,0.1 -3.224524,1.6222 -3.224524,3.4025"
       style="fill:#000000;fill-rule:nonzero;stroke:none"
       inkscape:connector-curvature="0"
       sodipodi:nodetypes="cccccccccsccccccccccsccscccscccccccccsscccscsccsscccsccsccscccsccsssccscccccccccc" />
    <g
       transform="matrix(1,0,0,-1,359.65901,798.97768)"
       id="g47068" />
    <g
       transform="matrix(1,0,0,-1,353.68491,798.97768)"
       id="g47070" />
    <g
       transform="matrix(1,0,0,-1,351.01711,801.64578)"
       id="g47072" />
    <g
       transform="matrix(1,0,0,-1,356.67451,801.98088)"
       id="g47086" />
    <g
       transform="matrix(1,0,0,-1,375.31621,798.98288)"
       id="g47120" />
    <g
       transform="matrix(1,0,0,-1,369.34171,798.98288)"
       id="g47122" />
    <g
       transform="matrix(1,0,0,-1,366.67421,801.65098)"
       id="g47124" />
    <g
       transform="matrix(1,0,0,-1,372.33151,801.98618)"
       id="g47138" />
    <g
       id="g48512"
       clip-path="url(#id1748)"
       transform="matrix(1,0,0,-1,-75.636091,1069.2284)">
      <g
         id="g48514"
         clip-path="url(#id1749)">
        <g
           id="g48516"
           clip-path="url(#id1750)">
          <g
             id="g48518"
             transform="matrix(0.1854706,0,0,0.1854858,193.94365,446.67957)">
            <use
               id="use48520"
               xlink:href="#id1751"
               x="0"
               y="0"
               width="744.09448"
               height="1052.3622" />
          </g>
        </g>
      </g>
    </g>
    <g
       id="g51878"
       clip-path="url(#id1925)"
       transform="matrix(1,0,0,-1,-75.636091,1069.2284)">
      <g
         id="g51880"
         transform="translate(358.7513,460.6634)">
        <path
           id="path51882"
           d="m 0,0 c -0.523,0 -0.947,0.522 -0.947,1.165 0,0.644 0.424,1.166 0.947,1.166 0.523,0 0.947,-0.522 0.947,-1.166 C 0.947,0.522 0.523,0 0,0 m 2.501,1.748 c -0.389,1.117 -1.214,1.7 -2.38,1.748 0,0 -2.768,0.195 -2.768,-2.476 0,0 0.097,-2.186 2.186,-2.089 0,0 0.679,-0.048 1.311,0.486 0,0 0.149,-0.548 -0.045,-1.082 -0.194,-0.535 -0.666,-0.901 -1.17,-0.569 0,0 -0.24,0.177 -0.291,0.583 L -2.55,-1.797 c 0,0 0.535,-1.7 2.477,-1.603 1.942,0.098 2.414,1.278 2.574,1.797 0.106,0.342 0.389,2.234 0,3.351"
           style="fill:#ffffff;fill-rule:nonzero;stroke:none"
           inkscape:connector-curvature="0" />
      </g>
    </g>
    <g
       id="g52538"
       clip-path="url(#id1953)"
       transform="matrix(1,0,0,-1,-75.636091,1069.2284)">
      <g
         id="g52540"
         clip-path="url(#id1954)">
        <g
           id="g52542"
           transform="matrix(0,2.289e-4,2.289e-4,0,299.81081,488.77924)">
          <path
             id="path52544"
             d="m -2135339.6,-1309789.5 2634338.13,0 0,2437745.8 -2634338.13,0 0,-2437745.8 z"
             style="fill:url(#linearGradient49821)"
             inkscape:connector-curvature="0" />
        </g>
      </g>
    </g>
  </g>
</svg>
